<svg id="svg-source-upload" height="0" version="1.1"
  xmlns="http://www.w3.org/2000/svg" style="position:absolute; margin-left: -100%"
  xmlns:xlink="http://www.w3.org/1999/xlink">
  <g id="septem-menu-icon-upload" data-iconmelon="80 icons pack:f71e81d024410f43ac8f389cebf91a23">
    <g>
      <g>
        <path d="M30.705,17.003c-0.717,0-1.297,0.581-1.297,1.296v10.589H2.592V18.299c0-0.715-0.58-1.296-1.297-1.296
      C0.58,17.003,0,17.584,0,18.299v10.734c0,1.349,1.098,2.445,2.445,2.445h27.109c1.348,0,2.445-1.097,2.445-2.445V18.299
      C32,17.584,31.42,17.003,30.705,17.003z"></path>
      </g>
      <g>
        <path d="M12.553,21.755c0,0.527,0.426,0.952,0.951,0.952h4.992c0.525,0,0.951-0.425,0.951-0.952V9.632h3.693
      c0-0.143-0.043-0.287-0.129-0.397l-6.7-8.549c-0.172-0.22-0.451-0.22-0.624,0L8.989,9.234c-0.087,0.11-0.13,0.255-0.13,0.397
      h3.693V21.755z"></path>
      </g>
    </g>
  </g>
</svg>