<svg id="svg-source-user" height="0" version="1.1"
  xmlns="http://www.w3.org/2000/svg" style="position:absolute; margin-left: -100%"
  xmlns:xlink="http://www.w3.org/1999/xlink">
  <g id="septem-menu-icon-user" data-iconmelon="80 icons pack:cdfc0a94ed2dd5a94f21679c483e5602">
    <g>
      <g>
        <path d="M22.463,14.812c1.461-1.575,2.361-3.676,2.361-5.988C24.824,3.958,20.866,0,16,0S7.176,3.958,7.176,8.824
      c0,2.312,0.9,4.413,2.361,5.988c-3.711,3.205-6.377,9.093-6.888,16.125c-0.021,0.274,0.075,0.545,0.263,0.746
      C3.099,31.885,3.361,32,3.637,32h24.727c0.275,0,0.538-0.115,0.726-0.316c0.187-0.201,0.282-0.472,0.262-0.746
      C28.84,23.905,26.174,18.018,22.463,14.812 M16,1.979c3.774,0,6.846,3.071,6.846,6.846S19.774,15.67,16,15.67
      s-6.846-3.071-6.846-6.846S12.226,1.979,16,1.979 M4.719,30.021c0.66-6.2,3.074-11.292,6.306-13.914
      c1.418,0.972,3.13,1.543,4.976,1.543c1.845,0,3.557-0.571,4.975-1.543c3.232,2.622,5.646,7.714,6.307,13.914H4.719z"></path>
      </g>
    </g>
  </g>
</svg>