<svg id="svg-source-cart" height="0" version="1.1"
  xmlns="http://www.w3.org/2000/svg" style="position:absolute; margin-left: -100%"
  xmlns:xlink="http://www.w3.org/1999/xlink">
  <g id="septem-menu-icon-cart" data-iconmelon="Line icon set:497ec46d54a6bfd5d4053362e530702e">
    <g id="Cart">
      <g>
        <path  d="M31.999,0.766c-0.133-0.535-0.677-0.863-1.213-0.728l-4.004,1c-0.39,0.098-0.684,0.418-0.746,0.814
      l-0.507,3.208L0.88,8.016c-0.02,0.002-0.035,0.016-0.055,0.02C0.802,8.039,0.78,8.032,0.757,8.038
      c-0.057,0.015-0.1,0.049-0.15,0.071c-0.056,0.024-0.11,0.043-0.16,0.076C0.375,8.233,0.319,8.295,0.263,8.358
      C0.235,8.39,0.198,8.407,0.175,8.441c-0.006,0.008-0.006,0.018-0.01,0.026C0.11,8.552,0.079,8.646,0.052,8.741
      c-0.01,0.035-0.031,0.065-0.037,0.101c-0.021,0.132-0.021,0.271,0.014,0.409l3.004,12l1,4c0.008,0.029,0.025,0.052,0.035,0.079
      c0.016,0.048,0.037,0.092,0.061,0.137c0.033,0.065,0.074,0.125,0.122,0.181c0.029,0.035,0.059,0.069,0.093,0.1
      c0.06,0.053,0.125,0.094,0.194,0.131c0.036,0.02,0.068,0.043,0.107,0.058c0.113,0.045,0.233,0.072,0.358,0.072h21.021
      c0.553,0,1-0.447,1-0.999c0-0.553-0.447-1.001-1-1.001H5.784l-0.5-2h18.738c0.123,0,0.242-0.022,0.352-0.064
      c0.045-0.017,0.08-0.048,0.121-0.07c0.062-0.033,0.126-0.062,0.179-0.107c0.039-0.034,0.065-0.08,0.1-0.12
      c0.042-0.05,0.089-0.094,0.122-0.151c0.029-0.052,0.039-0.113,0.059-0.171c0.02-0.053,0.047-0.102,0.057-0.159l0.004-0.021v-0.002
      v-0.008l2.896-18.315l3.36-0.839C31.808,1.845,32.134,1.302,31.999,0.766z M4.784,20.008L2.245,9.866l3.104-0.372l1.504,10.514
      H4.784z M8.874,20.008L7.338,9.256l3.119-0.374l0.505,11.126H8.874z M15.056,20.008h-2.088L12.45,8.643l3.116-0.373L15.056,20.008
      z M19.134,20.008H17.06l0.521-11.98l3.1-0.371L19.134,20.008z M23.146,20.008h-1.994L22.728,7.41l2.133-0.255L23.146,20.008z
       M9.014,27.997c-1.104,0-2.001,0.895-2.001,1.999c0,1.104,0.896,1.997,2.001,1.997s2-0.894,2-1.997
      C11.014,28.892,10.118,27.997,9.014,27.997z M22.015,27.997c-1.104,0-2,0.895-2,1.999c0,1.104,0.896,1.997,2,1.997
      s2-0.894,2-1.997C24.015,28.892,23.119,27.997,22.015,27.997z"></path>
      </g>
    </g>
  </g>
</svg>