<svg id="svg-source-mail" height="0" version="1.1"
  xmlns="http://www.w3.org/2000/svg" style="position:absolute; margin-left: -100%"
  xmlns:xlink="http://www.w3.org/1999/xlink">
  <g id="septem-menu-icon-mail" data-iconmelon="80 icons pack:e0c615ea15c8a534ff67768611f99530">
    <g>
      <g>
        <path d="M30.143,4.542H1.857C0.834,4.542,0,5.375,0,6.399v19.201c0,1.024,0.834,1.858,1.857,1.858h28.285
      c1.023,0,1.857-0.833,1.857-1.858V6.399C32,5.375,31.166,4.542,30.143,4.542z M29.522,23.992l-9.114-5.883l9.114-9.114V23.992z
       M14.687,21.205c0.362,0.362,0.837,0.542,1.313,0.542c0.476,0,0.951-0.181,1.314-0.543l2.198-2.199l9.259,5.977H3.205l9.279-5.979
      L14.687,21.205z M27.994,7.019L16,19.014L4.006,7.019H27.994z M11.588,18.105l-9.11,5.871V8.995L11.588,18.105z"></path>
      </g>
    </g>
  </g>
</svg>