<svg id="svg-source-tag" height="0" version="1.1"
  xmlns="http://www.w3.org/2000/svg" style="position:absolute; margin-left: -100%"
  xmlns:xlink="http://www.w3.org/1999/xlink">
  <g id="septem-menu-icon-tag" data-iconmelon="Christmas vector icons:9159a573ba1a535e4c2b1113adc0b53c">
    <g id="Credits"></g>
    <g id="Icons">
      <path d="M32,2.106c-0.002-0.799-0.447-1.244-0.658-1.455c-0.191-0.191-0.639-0.639-1.439-0.639c-0.791,0-2.076,0.375-5.008,3.311
    c-0.967,0.965-1.885,1.998-2.719,3.014l-0.072-0.072l-6.139-0.672L0,21.558l10.432,10.43l15.963-15.965l-0.672-6.135l-0.055-0.055
    c1.033-0.85,2.064-1.76,3.021-2.715C31.623,4.185,32,2.899,32,2.106z M10.432,29.159l-7.604-7.602L16.699,7.685l4.088,0.449
    c-0.797,1.104-1.402,2.094-1.75,2.873c-0.252,0.072-0.494,0.186-0.691,0.383c-0.623,0.627-0.621,1.635-0.008,2.254
    c0.629,0.627,1.637,0.625,2.258,0c0.514-0.51,0.586-1.266,0.258-1.873c0.24-0.514,0.756-1.365,1.51-2.416l1.449,1.449l0.488,4.482
    L10.432,29.159z M24.248,8.411l-0.654-0.654c0.773-0.953,1.672-1.977,2.715-3.02C29.062,1.979,29.869,2.003,30,2.103
    c0.002,0.033,0.033,0.844-2.725,3.602C26.318,6.659,25.283,7.571,24.248,8.411z"></path>
    </g>
  </g>
</svg>