<svg id="svg-source-house" height="0" version="1.1"
  xmlns="http://www.w3.org/2000/svg" style="position:absolute; margin-left: -100%"
  xmlns:xlink="http://www.w3.org/1999/xlink">
  <g id="septem-menu-icon-house" data-iconmelon="80 icons pack:ba157104c4f92479fab20fe387d6b92b">
    <g>
      <path d="M31.734,17.936L16.682,2.881c-0.179-0.179-0.422-0.279-0.674-0.279c-0.253,0-0.496,0.1-0.674,0.279L0.279,17.936
    c-0.373,0.372-0.373,0.976,0,1.348c0.372,0.372,0.857,0.372,1.229,0l2.881-3.001v11.924c0,0.526,0.666,1.191,1.192,1.191h6.663
    h7.626h6.683c0.527,0,0.715-0.665,0.715-1.191V16.402l3,2.881c0.188,0.186,0.49,0.279,0.734,0.279s0.518-0.093,0.703-0.279
    C32.078,18.911,32.107,18.307,31.734,17.936z M18.688,27.492h-5.72v-6.435c0-0.789,0.87-1.192,1.658-1.192h2.859
    c0.789,0,1.202,0.403,1.202,1.192V27.492z M25.361,27.492h-4.766v-6.435c0-1.84-1.27-3.099-3.109-3.099h-2.859
    c-1.84,0-3.564,1.259-3.564,3.099v6.435H6.296V14.384c0-0.002,0.118-0.004,0.118-0.007l9.414-9.474l9.533,9.592V27.492z"></path>
    </g>
  </g>
</svg>