<svg id="svg-source-grid" height="0" version="1.1"
  xmlns="http://www.w3.org/2000/svg" style="position:absolute; margin-left: -100%"
  xmlns:xlink="http://www.w3.org/1999/xlink">
  <g id="septem-menu-icon-grid" data-iconmelon="80 icons pack:5604ab7a08581000a751d1fdbd7a7ea9">
    <g>
      <g>
        <g>
          <path d="M14.298,12.255c0,1.127-0.915,2.043-2.043,2.043H2.043C0.914,14.298,0,13.382,0,12.255V2.043C0,0.914,0.914,0,2.043,0
        h10.212c1.128,0,2.043,0.914,2.043,2.043V12.255z"></path>
        </g>
      </g>
      <g>
        <g>
          <path d="M32,12.255c0,1.127-0.914,2.043-2.043,2.043H19.745c-1.13,0-2.043-0.916-2.043-2.043V2.043
        C17.702,0.914,18.615,0,19.745,0h10.212C31.086,0,32,0.914,32,2.043V12.255z"></path>
        </g>
      </g>
      <g>
        <g>
          <path d="M14.298,29.957c0,1.127-0.915,2.043-2.043,2.043H2.043C0.914,32,0,31.084,0,29.957V19.745
        c0-1.129,0.914-2.043,2.043-2.043h10.212c1.128,0,2.043,0.914,2.043,2.043V29.957z"></path>
        </g>
      </g>
      <g>
        <g>
          <path d="M32,29.957C32,31.084,31.086,32,29.957,32H19.745c-1.13,0-2.043-0.916-2.043-2.043V19.745
        c0-1.129,0.913-2.043,2.043-2.043h10.212c1.129,0,2.043,0.914,2.043,2.043V29.957z"></path>
        </g>
      </g>
    </g>
  </g>
</svg>